<svg width="30" height="30" viewBox="0 0 30 30" fill="none" xmlns="http://www.w3.org/2000/svg">
<path d="M11.25 20.624H3.51562C3.32914 20.624 3.1503 20.5499 3.01844 20.4181C2.88658 20.2862 2.8125 20.1074 2.8125 19.9209V12.1865C2.8125 9.94874 3.70145 7.80264 5.28378 6.2203C6.86612 4.63797 9.01222 3.74902 11.25 3.74902H11.25C13.4878 3.74902 15.6339 4.63797 17.2162 6.22031C18.7986 7.80265 19.6875 9.94876 19.6875 12.1865V12.1865C19.6875 14.4243 18.7986 16.5704 17.2162 18.1527C15.6339 19.7351 13.4878 20.624 11.25 20.624V20.624Z" stroke="#999999" stroke-width="1.5" stroke-linecap="round" stroke-linejoin="round"/>
<path d="M10.7927 20.6242C11.375 22.2693 12.4528 23.6934 13.8778 24.7007C15.3028 25.708 17.0049 26.2488 18.75 26.2489H26.4844C26.6708 26.2489 26.8497 26.1748 26.9816 26.0429C27.1134 25.9111 27.1875 25.7322 27.1875 25.5457V17.8113C27.1875 15.6534 26.3606 13.5774 24.877 12.0104C23.3934 10.4433 21.3658 9.50423 19.211 9.38623" stroke="#999999" stroke-width="1.5" stroke-linecap="round" stroke-linejoin="round"/>
</svg>
