<svg width="22" height="16" viewBox="0 0 22 16" fill="none" xmlns="http://www.w3.org/2000/svg">
<mask id="path-1-outside-1_1_212" maskUnits="userSpaceOnUse" x="0" y="0" width="22" height="16" fill="black">
<rect fill="white" width="22" height="16"/>
<path fill-rule="evenodd" clip-rule="evenodd" d="M10.4746 1.03662C9.31074 1.2062 8.37992 2.00623 8.02538 3.14171C7.89326 3.56474 7.89303 4.3577 8.02483 4.7824C8.42176 6.06133 9.55044 6.89363 10.8909 6.89585C11.4058 6.89671 11.7233 6.82409 12.1919 6.5983C12.817 6.29704 13.2398 5.87792 13.5581 5.24383C13.7962 4.76955 13.8657 4.42575 13.8436 3.83197C13.8293 3.44907 13.8052 3.29574 13.7195 3.04405C13.5679 2.59833 13.3369 2.22937 12.9959 1.88841C12.5159 1.40839 11.9491 1.12959 11.2613 1.03514C10.9175 0.987947 10.8074 0.988142 10.4746 1.03662ZM11.6255 1.77255C12.3306 2.01393 12.8864 2.57157 13.1138 3.26562C13.2357 3.63779 13.2451 4.25773 13.1338 4.58708C12.8489 5.43009 12.2691 5.97914 11.4397 6.19125C10.6826 6.38489 9.88635 6.17528 9.29664 5.62717C8.98878 5.34106 8.81154 5.06824 8.66739 4.65877C8.53368 4.27887 8.52653 3.68533 8.65103 3.29797C8.89955 2.52461 9.62966 1.85615 10.3954 1.70079C10.7132 1.63633 11.3332 1.67251 11.6255 1.77255ZM16.5475 3.08284C15.757 3.2614 15.0715 3.89053 14.8235 4.66521C14.7281 4.96308 14.7089 5.59427 14.7865 5.8762C14.8924 6.2604 15.1018 6.61971 15.389 6.90968C15.7063 7.23013 15.9216 7.36751 16.3152 7.50068C16.9071 7.70093 17.5012 7.65487 18.0936 7.36283C19.6477 6.59674 19.7923 4.42122 18.3545 3.43879C17.8422 3.08878 17.1366 2.94979 16.5475 3.08284ZM4.47952 3.24144C3.89661 3.36785 3.36194 3.72916 3.03544 4.21734C2.41908 5.13886 2.54124 6.33368 3.33139 7.11227C3.73902 7.51393 4.40307 7.78898 4.96501 7.78898C5.93783 7.78898 6.87365 7.09563 7.17768 6.14965C7.30074 5.76674 7.293 5.17156 7.16003 4.78885C7.02053 4.38743 6.8431 4.11144 6.54055 3.82525C5.98291 3.29773 5.21842 3.0812 4.47952 3.24144ZM17.5268 3.75146C17.8246 3.83971 18.0292 3.96889 18.2636 4.21676C19.0385 5.03609 18.7731 6.33552 17.7313 6.82308C17.0506 7.14161 16.1741 6.92464 15.7183 6.32478C15.474 6.00324 15.3974 5.76209 15.3963 5.30977C15.3954 4.95015 15.4053 4.89811 15.5206 4.65451C15.7244 4.2239 16.1097 3.88838 16.5671 3.74338C16.7888 3.6731 17.2761 3.6772 17.5268 3.75146ZM5.64863 3.98772C6.11799 4.21117 6.40581 4.54275 6.55406 5.03081C6.78763 5.79987 6.40656 6.63006 5.65934 6.97996C5.43816 7.08352 5.33702 7.10633 5.04314 7.11903C4.48702 7.14305 4.08204 6.97476 3.70082 6.56111C3.15509 5.9691 3.15509 5.00202 3.70082 4.41001C4.08408 3.99417 4.4589 3.83693 5.02361 3.85498C5.34339 3.86522 5.42984 3.88358 5.64863 3.98772ZM10.5317 7.30853C9.33567 7.42654 8.19042 7.92484 7.35535 8.6905L7.08928 8.93446L6.71079 8.75539C6.2496 8.53725 5.93431 8.44053 5.47324 8.3758C3.64019 8.11848 1.80929 9.25056 1.20798 11.0131C1.0486 11.4802 1 11.8775 1 12.7131C1 13.482 1.00039 13.4855 1.10915 13.6937C1.1886 13.8458 1.27013 13.9347 1.40877 14.0205L1.59924 14.1383L3.58011 14.1494L5.56094 14.1605L5.58629 14.319C5.62262 14.5462 5.73583 14.7467 5.92357 14.9162C6.25526 15.2159 5.83474 15.193 11.0004 15.193C16.1661 15.193 15.7456 15.2159 16.0773 14.9162C16.2996 14.7154 16.3991 14.5054 16.4218 14.1891L16.4405 13.9274L18.3984 13.9153C19.7902 13.9068 20.3861 13.89 20.4594 13.8574C20.6302 13.7813 20.8524 13.5627 20.928 13.3964C20.9889 13.2622 20.9992 13.1301 21 12.4734C21.0009 11.6428 20.9524 11.2462 20.7928 10.7788C20.3857 9.58679 19.4426 8.66398 18.2459 8.28665C17.1659 7.94617 15.9029 8.09739 14.9684 8.67905L14.7776 8.79781L14.5357 8.59257C13.4287 7.65343 11.9244 7.17106 10.5317 7.30853ZM11.8059 8.00621C13.7579 8.34166 15.2906 9.81582 15.6913 11.7432C15.7598 12.0729 15.778 12.3216 15.7915 13.1136C15.8094 14.1673 15.7881 14.3386 15.6233 14.4682C15.5218 14.5481 15.5015 14.5484 11.0004 14.5484C6.52699 14.5484 6.47847 14.5476 6.37941 14.4697C6.21174 14.3378 6.19561 14.2111 6.21038 13.1421C6.2219 12.3073 6.2378 12.0808 6.3087 11.7432C6.71079 9.82883 8.23257 8.35365 10.1605 8.00942C10.5821 7.93414 11.3775 7.93262 11.8059 8.00621ZM17.8734 8.84922C19.037 9.14571 19.9593 10.072 20.258 11.244C20.3245 11.5047 20.3368 11.6791 20.3368 12.3593C20.3368 12.9343 20.3233 13.179 20.2899 13.2124C20.2547 13.2476 19.7685 13.2593 18.3423 13.2593H16.4417L16.4187 12.5855C16.3853 11.6087 16.2345 11.0095 15.8198 10.2067C15.7187 10.0109 15.5435 9.72179 15.4304 9.56421L15.2249 9.27775L15.353 9.19861C16.0389 8.77464 17.0376 8.63624 17.8734 8.84922ZM5.77364 9.09505C6.10381 9.1788 6.62524 9.39815 6.62524 9.45327C6.62524 9.46491 6.55297 9.58085 6.46461 9.71093C6.23436 10.05 5.90376 10.7598 5.78536 11.1694C5.63363 11.6941 5.57097 12.193 5.57074 12.8785L5.57051 13.4937H3.66113C2.03043 13.4937 1.74484 13.4854 1.70421 13.4364C1.66878 13.3937 1.66085 13.1519 1.67315 12.4891C1.68792 11.6947 1.69929 11.5697 1.77906 11.3257C2.15946 10.1617 3.0831 9.3185 4.26186 9.05911C4.66402 8.97063 5.34718 8.98688 5.77364 9.09505Z"/>
</mask>
<path fill-rule="evenodd" clip-rule="evenodd" d="M10.4746 1.03662C9.31074 1.2062 8.37992 2.00623 8.02538 3.14171C7.89326 3.56474 7.89303 4.3577 8.02483 4.7824C8.42176 6.06133 9.55044 6.89363 10.8909 6.89585C11.4058 6.89671 11.7233 6.82409 12.1919 6.5983C12.817 6.29704 13.2398 5.87792 13.5581 5.24383C13.7962 4.76955 13.8657 4.42575 13.8436 3.83197C13.8293 3.44907 13.8052 3.29574 13.7195 3.04405C13.5679 2.59833 13.3369 2.22937 12.9959 1.88841C12.5159 1.40839 11.9491 1.12959 11.2613 1.03514C10.9175 0.987947 10.8074 0.988142 10.4746 1.03662ZM11.6255 1.77255C12.3306 2.01393 12.8864 2.57157 13.1138 3.26562C13.2357 3.63779 13.2451 4.25773 13.1338 4.58708C12.8489 5.43009 12.2691 5.97914 11.4397 6.19125C10.6826 6.38489 9.88635 6.17528 9.29664 5.62717C8.98878 5.34106 8.81154 5.06824 8.66739 4.65877C8.53368 4.27887 8.52653 3.68533 8.65103 3.29797C8.89955 2.52461 9.62966 1.85615 10.3954 1.70079C10.7132 1.63633 11.3332 1.67251 11.6255 1.77255ZM16.5475 3.08284C15.757 3.2614 15.0715 3.89053 14.8235 4.66521C14.7281 4.96308 14.7089 5.59427 14.7865 5.8762C14.8924 6.2604 15.1018 6.61971 15.389 6.90968C15.7063 7.23013 15.9216 7.36751 16.3152 7.50068C16.9071 7.70093 17.5012 7.65487 18.0936 7.36283C19.6477 6.59674 19.7923 4.42122 18.3545 3.43879C17.8422 3.08878 17.1366 2.94979 16.5475 3.08284ZM4.47952 3.24144C3.89661 3.36785 3.36194 3.72916 3.03544 4.21734C2.41908 5.13886 2.54124 6.33368 3.33139 7.11227C3.73902 7.51393 4.40307 7.78898 4.96501 7.78898C5.93783 7.78898 6.87365 7.09563 7.17768 6.14965C7.30074 5.76674 7.293 5.17156 7.16003 4.78885C7.02053 4.38743 6.8431 4.11144 6.54055 3.82525C5.98291 3.29773 5.21842 3.0812 4.47952 3.24144ZM17.5268 3.75146C17.8246 3.83971 18.0292 3.96889 18.2636 4.21676C19.0385 5.03609 18.7731 6.33552 17.7313 6.82308C17.0506 7.14161 16.1741 6.92464 15.7183 6.32478C15.474 6.00324 15.3974 5.76209 15.3963 5.30977C15.3954 4.95015 15.4053 4.89811 15.5206 4.65451C15.7244 4.2239 16.1097 3.88838 16.5671 3.74338C16.7888 3.6731 17.2761 3.6772 17.5268 3.75146ZM5.64863 3.98772C6.11799 4.21117 6.40581 4.54275 6.55406 5.03081C6.78763 5.79987 6.40656 6.63006 5.65934 6.97996C5.43816 7.08352 5.33702 7.10633 5.04314 7.11903C4.48702 7.14305 4.08204 6.97476 3.70082 6.56111C3.15509 5.9691 3.15509 5.00202 3.70082 4.41001C4.08408 3.99417 4.4589 3.83693 5.02361 3.85498C5.34339 3.86522 5.42984 3.88358 5.64863 3.98772ZM10.5317 7.30853C9.33567 7.42654 8.19042 7.92484 7.35535 8.6905L7.08928 8.93446L6.71079 8.75539C6.2496 8.53725 5.93431 8.44053 5.47324 8.3758C3.64019 8.11848 1.80929 9.25056 1.20798 11.0131C1.0486 11.4802 1 11.8775 1 12.7131C1 13.482 1.00039 13.4855 1.10915 13.6937C1.1886 13.8458 1.27013 13.9347 1.40877 14.0205L1.59924 14.1383L3.58011 14.1494L5.56094 14.1605L5.58629 14.319C5.62262 14.5462 5.73583 14.7467 5.92357 14.9162C6.25526 15.2159 5.83474 15.193 11.0004 15.193C16.1661 15.193 15.7456 15.2159 16.0773 14.9162C16.2996 14.7154 16.3991 14.5054 16.4218 14.1891L16.4405 13.9274L18.3984 13.9153C19.7902 13.9068 20.3861 13.89 20.4594 13.8574C20.6302 13.7813 20.8524 13.5627 20.928 13.3964C20.9889 13.2622 20.9992 13.1301 21 12.4734C21.0009 11.6428 20.9524 11.2462 20.7928 10.7788C20.3857 9.58679 19.4426 8.66398 18.2459 8.28665C17.1659 7.94617 15.9029 8.09739 14.9684 8.67905L14.7776 8.79781L14.5357 8.59257C13.4287 7.65343 11.9244 7.17106 10.5317 7.30853ZM11.8059 8.00621C13.7579 8.34166 15.2906 9.81582 15.6913 11.7432C15.7598 12.0729 15.778 12.3216 15.7915 13.1136C15.8094 14.1673 15.7881 14.3386 15.6233 14.4682C15.5218 14.5481 15.5015 14.5484 11.0004 14.5484C6.52699 14.5484 6.47847 14.5476 6.37941 14.4697C6.21174 14.3378 6.19561 14.2111 6.21038 13.1421C6.2219 12.3073 6.2378 12.0808 6.3087 11.7432C6.71079 9.82883 8.23257 8.35365 10.1605 8.00942C10.5821 7.93414 11.3775 7.93262 11.8059 8.00621ZM17.8734 8.84922C19.037 9.14571 19.9593 10.072 20.258 11.244C20.3245 11.5047 20.3368 11.6791 20.3368 12.3593C20.3368 12.9343 20.3233 13.179 20.2899 13.2124C20.2547 13.2476 19.7685 13.2593 18.3423 13.2593H16.4417L16.4187 12.5855C16.3853 11.6087 16.2345 11.0095 15.8198 10.2067C15.7187 10.0109 15.5435 9.72179 15.4304 9.56421L15.2249 9.27775L15.353 9.19861C16.0389 8.77464 17.0376 8.63624 17.8734 8.84922ZM5.77364 9.09505C6.10381 9.1788 6.62524 9.39815 6.62524 9.45327C6.62524 9.46491 6.55297 9.58085 6.46461 9.71093C6.23436 10.05 5.90376 10.7598 5.78536 11.1694C5.63363 11.6941 5.57097 12.193 5.57074 12.8785L5.57051 13.4937H3.66113C2.03043 13.4937 1.74484 13.4854 1.70421 13.4364C1.66878 13.3937 1.66085 13.1519 1.67315 12.4891C1.68792 11.6947 1.69929 11.5697 1.77906 11.3257C2.15946 10.1617 3.0831 9.3185 4.26186 9.05911C4.66402 8.97063 5.34718 8.98688 5.77364 9.09505Z" fill="#6654D9"/>
<path fill-rule="evenodd" clip-rule="evenodd" d="M10.4746 1.03662C9.31074 1.2062 8.37992 2.00623 8.02538 3.14171C7.89326 3.56474 7.89303 4.3577 8.02483 4.7824C8.42176 6.06133 9.55044 6.89363 10.8909 6.89585C11.4058 6.89671 11.7233 6.82409 12.1919 6.5983C12.817 6.29704 13.2398 5.87792 13.5581 5.24383C13.7962 4.76955 13.8657 4.42575 13.8436 3.83197C13.8293 3.44907 13.8052 3.29574 13.7195 3.04405C13.5679 2.59833 13.3369 2.22937 12.9959 1.88841C12.5159 1.40839 11.9491 1.12959 11.2613 1.03514C10.9175 0.987947 10.8074 0.988142 10.4746 1.03662ZM11.6255 1.77255C12.3306 2.01393 12.8864 2.57157 13.1138 3.26562C13.2357 3.63779 13.2451 4.25773 13.1338 4.58708C12.8489 5.43009 12.2691 5.97914 11.4397 6.19125C10.6826 6.38489 9.88635 6.17528 9.29664 5.62717C8.98878 5.34106 8.81154 5.06824 8.66739 4.65877C8.53368 4.27887 8.52653 3.68533 8.65103 3.29797C8.89955 2.52461 9.62966 1.85615 10.3954 1.70079C10.7132 1.63633 11.3332 1.67251 11.6255 1.77255ZM16.5475 3.08284C15.757 3.2614 15.0715 3.89053 14.8235 4.66521C14.7281 4.96308 14.7089 5.59427 14.7865 5.8762C14.8924 6.2604 15.1018 6.61971 15.389 6.90968C15.7063 7.23013 15.9216 7.36751 16.3152 7.50068C16.9071 7.70093 17.5012 7.65487 18.0936 7.36283C19.6477 6.59674 19.7923 4.42122 18.3545 3.43879C17.8422 3.08878 17.1366 2.94979 16.5475 3.08284ZM4.47952 3.24144C3.89661 3.36785 3.36194 3.72916 3.03544 4.21734C2.41908 5.13886 2.54124 6.33368 3.33139 7.11227C3.73902 7.51393 4.40307 7.78898 4.96501 7.78898C5.93783 7.78898 6.87365 7.09563 7.17768 6.14965C7.30074 5.76674 7.293 5.17156 7.16003 4.78885C7.02053 4.38743 6.8431 4.11144 6.54055 3.82525C5.98291 3.29773 5.21842 3.0812 4.47952 3.24144ZM17.5268 3.75146C17.8246 3.83971 18.0292 3.96889 18.2636 4.21676C19.0385 5.03609 18.7731 6.33552 17.7313 6.82308C17.0506 7.14161 16.1741 6.92464 15.7183 6.32478C15.474 6.00324 15.3974 5.76209 15.3963 5.30977C15.3954 4.95015 15.4053 4.89811 15.5206 4.65451C15.7244 4.2239 16.1097 3.88838 16.5671 3.74338C16.7888 3.6731 17.2761 3.6772 17.5268 3.75146ZM5.64863 3.98772C6.11799 4.21117 6.40581 4.54275 6.55406 5.03081C6.78763 5.79987 6.40656 6.63006 5.65934 6.97996C5.43816 7.08352 5.33702 7.10633 5.04314 7.11903C4.48702 7.14305 4.08204 6.97476 3.70082 6.56111C3.15509 5.9691 3.15509 5.00202 3.70082 4.41001C4.08408 3.99417 4.4589 3.83693 5.02361 3.85498C5.34339 3.86522 5.42984 3.88358 5.64863 3.98772ZM10.5317 7.30853C9.33567 7.42654 8.19042 7.92484 7.35535 8.6905L7.08928 8.93446L6.71079 8.75539C6.2496 8.53725 5.93431 8.44053 5.47324 8.3758C3.64019 8.11848 1.80929 9.25056 1.20798 11.0131C1.0486 11.4802 1 11.8775 1 12.7131C1 13.482 1.00039 13.4855 1.10915 13.6937C1.1886 13.8458 1.27013 13.9347 1.40877 14.0205L1.59924 14.1383L3.58011 14.1494L5.56094 14.1605L5.58629 14.319C5.62262 14.5462 5.73583 14.7467 5.92357 14.9162C6.25526 15.2159 5.83474 15.193 11.0004 15.193C16.1661 15.193 15.7456 15.2159 16.0773 14.9162C16.2996 14.7154 16.3991 14.5054 16.4218 14.1891L16.4405 13.9274L18.3984 13.9153C19.7902 13.9068 20.3861 13.89 20.4594 13.8574C20.6302 13.7813 20.8524 13.5627 20.928 13.3964C20.9889 13.2622 20.9992 13.1301 21 12.4734C21.0009 11.6428 20.9524 11.2462 20.7928 10.7788C20.3857 9.58679 19.4426 8.66398 18.2459 8.28665C17.1659 7.94617 15.9029 8.09739 14.9684 8.67905L14.7776 8.79781L14.5357 8.59257C13.4287 7.65343 11.9244 7.17106 10.5317 7.30853ZM11.8059 8.00621C13.7579 8.34166 15.2906 9.81582 15.6913 11.7432C15.7598 12.0729 15.778 12.3216 15.7915 13.1136C15.8094 14.1673 15.7881 14.3386 15.6233 14.4682C15.5218 14.5481 15.5015 14.5484 11.0004 14.5484C6.52699 14.5484 6.47847 14.5476 6.37941 14.4697C6.21174 14.3378 6.19561 14.2111 6.21038 13.1421C6.2219 12.3073 6.2378 12.0808 6.3087 11.7432C6.71079 9.82883 8.23257 8.35365 10.1605 8.00942C10.5821 7.93414 11.3775 7.93262 11.8059 8.00621ZM17.8734 8.84922C19.037 9.14571 19.9593 10.072 20.258 11.244C20.3245 11.5047 20.3368 11.6791 20.3368 12.3593C20.3368 12.9343 20.3233 13.179 20.2899 13.2124C20.2547 13.2476 19.7685 13.2593 18.3423 13.2593H16.4417L16.4187 12.5855C16.3853 11.6087 16.2345 11.0095 15.8198 10.2067C15.7187 10.0109 15.5435 9.72179 15.4304 9.56421L15.2249 9.27775L15.353 9.19861C16.0389 8.77464 17.0376 8.63624 17.8734 8.84922ZM5.77364 9.09505C6.10381 9.1788 6.62524 9.39815 6.62524 9.45327C6.62524 9.46491 6.55297 9.58085 6.46461 9.71093C6.23436 10.05 5.90376 10.7598 5.78536 11.1694C5.63363 11.6941 5.57097 12.193 5.57074 12.8785L5.57051 13.4937H3.66113C2.03043 13.4937 1.74484 13.4854 1.70421 13.4364C1.66878 13.3937 1.66085 13.1519 1.67315 12.4891C1.68792 11.6947 1.69929 11.5697 1.77906 11.3257C2.15946 10.1617 3.0831 9.3185 4.26186 9.05911C4.66402 8.97063 5.34718 8.98688 5.77364 9.09505Z" stroke="#6654D9" stroke-width="0.4" mask="url(#path-1-outside-1_1_212)"/>
</svg>
