<svg width="25" height="24" viewBox="0 0 25 24" fill="none" xmlns="http://www.w3.org/2000/svg">
<path d="M15.3333 10L14.8403 9.918C14.8283 9.9896 14.8322 10.0629 14.8515 10.1329C14.8708 10.2029 14.9051 10.2678 14.952 10.3232C14.9989 10.3786 15.0573 10.4231 15.1231 10.4536C15.189 10.4841 15.2607 10.5 15.3333 10.5V10ZM4.33325 10V9.5C4.20064 9.5 4.07347 9.55268 3.9797 9.64645C3.88593 9.74021 3.83325 9.86739 3.83325 10H4.33325ZM6.33325 20.5H17.6933V19.5H6.33325V20.5ZM18.8933 9.5H15.3333V10.5H18.8933V9.5ZM15.8263 10.082L16.6323 5.247L15.6463 5.082L14.8403 9.918L15.8263 10.082ZM15.1533 3.5H14.9403V4.5H15.1533V3.5ZM12.0273 5.059L9.51125 8.832L10.3433 9.387L12.8583 5.613L12.0263 5.059H12.0273ZM8.26325 9.5H4.33325V10.5H8.26325V9.5ZM3.83325 10V18H4.83325V10H3.83325ZM20.1453 18.49L21.3453 12.49L20.3653 12.294L19.1653 18.294L20.1453 18.49ZM9.51125 8.832C9.37429 9.03747 9.18871 9.20594 8.971 9.32247C8.7533 9.439 8.51019 9.49998 8.26325 9.5V10.5C8.67478 10.5 9.07994 10.3984 9.44279 10.2043C9.80563 10.0101 10.1149 9.72938 10.3433 9.387L9.51125 8.832ZM16.6323 5.247C16.6681 5.03214 16.6568 4.81203 16.599 4.602C16.5412 4.39197 16.4383 4.19705 16.2976 4.03079C16.1568 3.86453 15.9815 3.73093 15.7839 3.63926C15.5863 3.5476 15.3711 3.50008 15.1533 3.5V4.5C15.2259 4.49989 15.2977 4.51562 15.3637 4.54609C15.4297 4.57656 15.4882 4.62104 15.5352 4.67644C15.5822 4.73184 15.6166 4.79682 15.636 4.86686C15.6553 4.9369 15.6592 5.01032 15.6473 5.082L16.6323 5.247ZM18.8933 10.5C19.1152 10.5 19.3343 10.5492 19.5349 10.6441C19.7355 10.7391 19.9126 10.8773 20.0533 11.0489C20.194 11.2205 20.2949 11.4212 20.3486 11.6365C20.4024 11.8518 20.4087 12.0764 20.3653 12.294L21.3453 12.49C21.4177 12.1274 21.4079 11.7533 21.3183 11.3946C21.2288 11.0359 21.0608 10.7015 20.8265 10.4155C20.5921 10.1295 20.2973 9.89907 19.9632 9.74076C19.6291 9.58245 19.264 9.50022 18.8943 9.5V10.5H18.8933ZM17.6933 20.5C18.2713 20.5001 18.8316 20.2999 19.2786 19.9334C19.7257 19.5669 20.0319 19.0569 20.1453 18.49L19.1653 18.294C19.0972 18.6343 18.9134 18.9404 18.645 19.1603C18.3766 19.3802 18.0402 19.5003 17.6933 19.5V20.5ZM14.9393 3.5C14.3629 3.49991 13.7954 3.64217 13.2872 3.91414C12.779 4.18611 12.3459 4.57937 12.0263 5.059L12.8583 5.613C13.0866 5.27062 13.3959 4.98989 13.7587 4.79573C14.1216 4.60158 14.5267 4.49999 14.9383 4.5V3.5H14.9393ZM6.33325 19.5C5.93543 19.5 5.5539 19.342 5.27259 19.0607C4.99129 18.7794 4.83325 18.3978 4.83325 18H3.83325C3.83325 18.3283 3.89792 18.6534 4.02355 18.9567C4.14919 19.26 4.33334 19.5356 4.56549 19.7678C4.79763 19.9999 5.07323 20.1841 5.37654 20.3097C5.67986 20.4353 6.00495 20.5 6.33325 20.5V19.5Z" fill="#7C8091"/>
<path d="M8.33325 10V20" stroke="#7C8091"/>
</svg>
