<svg width="25" height="26" viewBox="0 0 25 26" fill="none" xmlns="http://www.w3.org/2000/svg">
<path fill-rule="evenodd" clip-rule="evenodd" d="M11.342 0.528765C8.41304 0.813554 5.73389 2.07554 3.65414 4.15007C1.71087 6.08846 0.525308 8.46388 0.0908841 11.2894C-0.0302947 12.0774 -0.0302947 13.9255 0.0908841 14.7135C0.525015 17.5371 1.7007 19.8949 3.64763 21.8463C5.58625 23.7893 7.96193 24.9748 10.7877 25.4091C11.5759 25.5303 13.4241 25.5303 14.2123 25.4091C17.0362 24.975 19.3942 23.7995 21.3459 21.8528C23.2891 19.9144 24.4747 17.539 24.9091 14.7135C25.0303 13.9255 25.0303 12.0774 24.9091 11.2894C24.475 8.46573 23.2993 6.10798 21.3524 4.15657C19.4269 2.22669 17.023 1.02194 14.2612 0.602628C13.6499 0.509834 11.9732 0.467424 11.342 0.528765ZM14.09 2.55604C16.3483 2.90882 18.3392 3.92163 19.96 5.54227C21.5935 7.17557 22.5942 9.15276 22.9554 11.4606C23.0149 11.8403 23.0397 12.2937 23.0397 13.0014C23.0397 13.7091 23.0149 14.1625 22.9554 14.5423C22.5942 16.8501 21.5935 18.8273 19.96 20.4606C18.3265 22.0939 16.3491 23.0945 14.041 23.4557C13.2999 23.5716 11.7001 23.5716 10.959 23.4557C8.6509 23.0945 6.67348 22.0939 5.03999 20.4606C3.4065 18.8273 2.40576 16.8501 2.04457 14.5423C1.92858 13.8013 1.92858 12.2016 2.04457 11.4606C2.40576 9.15276 3.4065 7.17557 5.03999 5.54227C6.84177 3.74064 8.97813 2.74535 11.6439 2.46564C12.0418 2.42387 13.6162 2.48208 14.09 2.55604ZM16.9519 8.82312C16.8427 8.86998 15.6943 9.98194 13.785 11.8894L10.7893 14.8821L9.52879 13.6299C8.83553 12.9413 8.20145 12.3439 8.1198 12.3025C7.61694 12.0473 7.05033 12.2307 6.7998 12.7297C6.65289 13.0224 6.64472 13.2924 6.77465 13.5608C6.83698 13.6895 7.47149 14.3575 8.57252 15.4534C9.91434 16.789 10.3143 17.16 10.4643 17.2082C10.7133 17.288 11.0914 17.2411 11.2909 17.1055C11.5265 16.9455 17.9619 10.5169 18.1416 10.2621C18.2784 10.0682 18.2969 10.0032 18.2971 9.71603C18.2972 9.43261 18.278 9.36285 18.1504 9.18172C17.878 8.79489 17.3708 8.64315 16.9519 8.82312Z" fill="#26C622"/>
</svg>
