<svg width="20" height="18" viewBox="0 0 20 18" fill="none" xmlns="http://www.w3.org/2000/svg">
<path d="M10.8 9.6C11.4365 9.6 12.047 9.85286 12.4971 10.3029C12.9471 10.753 13.2 11.3635 13.2 12V13.8C13.2 16.2648 10.6944 18 6.6 18C2.5056 18 0 16.2648 0 13.8V12C0 11.3635 0.252856 10.753 0.702944 10.3029C1.15303 9.85286 1.76348 9.6 2.4 9.6H10.8ZM10.8 10.8H2.4C2.08174 10.8 1.77652 10.9264 1.55147 11.1515C1.32643 11.3765 1.2 11.6817 1.2 12V13.8C1.2 15.4884 3.0948 16.8 6.6 16.8C10.1052 16.8 12 15.4884 12 13.8V12C12 11.6817 11.8736 11.3765 11.6485 11.1515C11.4235 10.9264 11.1183 10.8 10.8 10.8ZM16.8 9.6C17.4365 9.6 18.047 9.85286 18.4971 10.3029C18.9471 10.753 19.2 11.3635 19.2 12V12.6C19.2 15.1068 17.3184 16.8 13.8 16.8C13.6308 16.8 13.464 16.7964 13.3032 16.788C13.5528 16.4976 13.7616 16.1856 13.9296 15.8508L14.046 15.5952H14.0928C16.7712 15.5172 18 14.352 18 12.6V12C18 11.6817 17.8736 11.3765 17.6485 11.1515C17.4235 10.9264 17.1183 10.8 16.8 10.8H14.1948C14.0378 10.3573 13.7956 9.94967 13.482 9.6H16.8ZM6.6 0C7.15155 -8.21876e-09 7.6977 0.108636 8.20727 0.319706C8.71684 0.530776 9.17984 0.840145 9.56985 1.23015C9.95985 1.62016 10.2692 2.08316 10.4803 2.59273C10.6914 3.1023 10.8 3.64845 10.8 4.2C10.8 4.75155 10.6914 5.2977 10.4803 5.80727C10.2692 6.31684 9.95985 6.77984 9.56985 7.16985C9.17984 7.55985 8.71684 7.86922 8.20727 8.08029C7.6977 8.29136 7.15155 8.4 6.6 8.4C5.48609 8.4 4.4178 7.9575 3.63015 7.16985C2.8425 6.3822 2.4 5.31391 2.4 4.2C2.4 3.08609 2.8425 2.0178 3.63015 1.23015C4.4178 0.442499 5.48609 1.65985e-08 6.6 0V0ZM15 2.4C15.7957 2.4 16.5587 2.71607 17.1213 3.27868C17.6839 3.84129 18 4.60435 18 5.4C18 6.19565 17.6839 6.95871 17.1213 7.52132C16.5587 8.08393 15.7957 8.4 15 8.4C14.2044 8.4 13.4413 8.08393 12.8787 7.52132C12.3161 6.95871 12 6.19565 12 5.4C12 4.60435 12.3161 3.84129 12.8787 3.27868C13.4413 2.71607 14.2044 2.4 15 2.4ZM6.6 1.2C5.80435 1.2 5.04129 1.51607 4.47868 2.07868C3.91607 2.64129 3.6 3.40435 3.6 4.2C3.6 4.99565 3.91607 5.75871 4.47868 6.32132C5.04129 6.88393 5.80435 7.2 6.6 7.2C7.39565 7.2 8.15871 6.88393 8.72132 6.32132C9.28393 5.75871 9.6 4.99565 9.6 4.2C9.6 3.40435 9.28393 2.64129 8.72132 2.07868C8.15871 1.51607 7.39565 1.2 6.6 1.2ZM15 3.6C14.5226 3.6 14.0648 3.78964 13.7272 4.12721C13.3896 4.46477 13.2 4.92261 13.2 5.4C13.2 5.87739 13.3896 6.33523 13.7272 6.67279C14.0648 7.01036 14.5226 7.2 15 7.2C15.4774 7.2 15.9352 7.01036 16.2728 6.67279C16.6104 6.33523 16.8 5.87739 16.8 5.4C16.8 4.92261 16.6104 4.46477 16.2728 4.12721C15.9352 3.78964 15.4774 3.6 15 3.6Z" fill="#1FB887"/>
</svg>
